<?xml version="1.0" encoding="UTF-8" standalone="no"?>
<!DOCTYPE svg PUBLIC "-//W3C//DTD SVG 1.1//EN" "http://www.w3.org/Graphics/SVG/1.1/DTD/svg11.dtd">
<svg width="100%" height="100%" viewBox="0 0 313 313" version="1.1" xmlns="http://www.w3.org/2000/svg" xmlns:xlink="http://www.w3.org/1999/xlink" xml:space="preserve" xmlns:serif="http://www.serif.com/" style="fill-rule:evenodd;clip-rule:evenodd;stroke-linecap:round;stroke-linejoin:round;stroke-miterlimit:3.13953;">
    <g transform="matrix(3.125,0,0,3.125,0,0)">
        <g transform="matrix(0.936806,0,0,0.947176,-1017.57,-817.849)">
            <path d="M1090.93,963.926L1090.93,868.571L1188.24,868.571" style="fill:none;stroke:rgb(250,204,21);stroke-width:8.85px;"/>
        </g>
        <g transform="matrix(0.468403,0,0,0.473588,-460.997,-361.345)">
            <path d="M1090.93,963.926L1090.93,895.166C1090.93,888.112 1093.77,881.348 1098.81,876.36C1103.85,871.373 1110.69,868.571 1117.82,868.571C1146.62,868.571 1188.24,868.571 1188.24,868.571" style="fill:none;stroke:rgb(250,204,21);stroke-width:17.69px;"/>
        </g>
        <g transform="matrix(0.936806,0,0,0.947176,-1018.76,-817.849)">
            <circle cx="1154.22" cy="929.622" r="13.374" style="fill:none;stroke:rgb(250,204,21);stroke-width:8.85px;"/>
        </g>
        <g transform="matrix(0.936806,0,0,0.947176,-1017.57,-817.849)">
            <path d="M1133.46,908.792L1090.93,868.571" style="fill:none;stroke:rgb(250,204,21);stroke-width:8.85px;"/>
        </g>
        <g transform="matrix(0.936806,0,0,0.947176,-1017.57,-817.849)">
            <path d="M1133.46,888.682L1133.46,908.792L1112.2,908.792" style="fill:none;stroke:rgb(250,204,21);stroke-width:8.85px;"/>
        </g>
    </g>
</svg>
