<?xml version="1.0" encoding="UTF-8" standalone="no"?><!DOCTYPE svg PUBLIC "-//W3C//DTD SVG 1.1//EN" "http://www.w3.org/Graphics/SVG/1.1/DTD/svg11.dtd"><svg width="75px" height="75px" version="1.1" xmlns="http://www.w3.org/2000/svg" xmlns:xlink="http://www.w3.org/1999/xlink" xml:space="preserve" xmlns:serif="http://www.serif.com/" style="fill-rule:evenodd;clip-rule:evenodd;stroke-linecap:round;stroke-linejoin:round;stroke-miterlimit:3.13953;"><g transform="matrix(0.75,0,0,0.75,0,0)"><g transform="matrix(0.936806,0,0,0.947176,-1017.57,-817.849)"><path d="M1090.93,963.926l-0,-95.355l97.302,-0" style="fill:none;stroke:#000;stroke-width:8.85px;"/></g><g transform="matrix(0.468403,0,0,0.473588,-460.997,-361.345)"><path d="M1090.93,963.926l-0,-68.76c-0,-7.054 2.833,-13.818 7.875,-18.806c5.043,-4.987 11.882,-7.789 19.014,-7.789c28.799,-0 70.413,-0 70.413,-0" style="fill:none;stroke:#000;stroke-width:17.69px;"/></g><g transform="matrix(0.936806,0,0,0.947176,-1018.76,-817.849)"><circle cx="1154.22" cy="929.622" r="13.374" style="fill:none;stroke:#000;stroke-width:8.85px;"/></g><g transform="matrix(0.936806,0,0,0.947176,-1017.57,-817.849)"><path d="M1133.46,908.792l-42.528,-40.221" style="fill:none;stroke:#000;stroke-width:8.85px;"/></g><g transform="matrix(0.936806,0,0,0.947176,-1017.57,-817.849)"><path d="M1133.46,888.682l-0,20.11l-21.264,0" style="fill:none;stroke:#000;stroke-width:8.85px;"/></g></g></svg>